<svg xmlns="http://www.w3.org/2000/svg" width="41.99" height="29.399" viewBox="0 0 41.99 29.399">
  <path id="_001-youtube" data-name="001-youtube" d="M41.125-1.482a5.26,5.26,0,0,0-3.7-3.7c-3.286-.9-16.429-.9-16.429-.9s-13.143,0-16.429.865a5.367,5.367,0,0,0-3.7,3.735C0,1.8,0,8.618,0,8.618s0,6.848.865,10.1a5.261,5.261,0,0,0,3.7,3.7c3.32.9,16.429.9,16.429.9s13.143,0,16.429-.865a5.261,5.261,0,0,0,3.7-3.7c.864-3.286.864-10.1.864-10.1s.035-6.848-.865-10.134ZM16.81,14.913V2.323L27.74,8.618Zm0,0" transform="translate(-0.001 6.082)" fill="#fff"/>
</svg>
