<svg id="_002-instagram" data-name="002-instagram" xmlns="http://www.w3.org/2000/svg" width="33.578" height="33.585" viewBox="0 0 33.578 33.585">
  <path id="Path_1" data-name="Path 1" d="M33.942,9.874A12.272,12.272,0,0,0,33.161,5.8,8.6,8.6,0,0,0,28.247.886,12.3,12.3,0,0,0,24.173.105C22.375.02,21.8,0,17.244,0s-5.131.02-6.922.1A12.276,12.276,0,0,0,6.249.879,8.2,8.2,0,0,0,3.27,2.821,8.269,8.269,0,0,0,1.334,5.793,12.3,12.3,0,0,0,.554,9.867C.468,11.665.449,12.236.449,16.8s.02,5.131.1,6.922a12.271,12.271,0,0,0,.781,4.074,8.6,8.6,0,0,0,4.914,4.914,12.305,12.305,0,0,0,4.074.781c1.791.079,2.362.1,6.922.1s5.131-.019,6.922-.1a12.269,12.269,0,0,0,4.074-.781,8.59,8.59,0,0,0,4.914-4.914,12.313,12.313,0,0,0,.781-4.074c.079-1.791.1-2.362.1-6.922s-.007-5.131-.085-6.922ZM30.917,23.586A9.206,9.206,0,0,1,30.34,26.7a5.571,5.571,0,0,1-3.189,3.189,9.238,9.238,0,0,1-3.116.577c-1.771.079-2.3.1-6.784.1s-5.019-.019-6.784-.1a9.2,9.2,0,0,1-3.116-.577,5.168,5.168,0,0,1-1.929-1.253,5.221,5.221,0,0,1-1.253-1.929,9.24,9.24,0,0,1-.577-3.116c-.079-1.771-.1-2.3-.1-6.784s.019-5.019.1-6.784a9.2,9.2,0,0,1,.577-3.116A5.1,5.1,0,0,1,5.428,4.98,5.214,5.214,0,0,1,7.357,3.727a9.244,9.244,0,0,1,3.116-.577c1.771-.079,2.3-.1,6.784-.1s5.019.02,6.784.1a9.205,9.205,0,0,1,3.116.577A5.164,5.164,0,0,1,29.087,4.98,5.22,5.22,0,0,1,30.34,6.909a9.243,9.243,0,0,1,.577,3.116c.079,1.771.1,2.3.1,6.784s-.02,5.006-.1,6.777Zm0,0" transform="translate(-0.449 0)" fill="#fff"/>
  <path id="Path_2" data-name="Path 2" d="M133.577,124.5a8.628,8.628,0,1,0,8.628,8.628A8.63,8.63,0,0,0,133.577,124.5Zm0,14.224a5.6,5.6,0,1,1,5.6-5.6A5.6,5.6,0,0,1,133.577,138.724Zm0,0" transform="translate(-116.781 -116.332)" fill="#fff"/>
  <path id="Path_3" data-name="Path 3" d="M366.478,90.616a2.014,2.014,0,1,1-2.014-2.014A2.014,2.014,0,0,1,366.478,90.616Zm0,0" transform="translate(-338.699 -82.789)" fill="#fff"/>
</svg>
