<svg id="_005-twitter" data-name="005-twitter" xmlns="http://www.w3.org/2000/svg" width="33.592" height="27.293" viewBox="0 0 33.592 27.293">
  <g id="Group_3" data-name="Group 3" transform="translate(0 0)">
    <path id="Path_4" data-name="Path 4" d="M33.592,51.231a14.358,14.358,0,0,1-3.968,1.088,6.848,6.848,0,0,0,3.03-3.806,13.763,13.763,0,0,1-4.367,1.667,6.886,6.886,0,0,0-11.912,4.709,7.091,7.091,0,0,0,.16,1.57,19.493,19.493,0,0,1-14.195-7.2,6.888,6.888,0,0,0,2.116,9.2,6.8,6.8,0,0,1-3.111-.848v.076a6.918,6.918,0,0,0,5.517,6.767,6.874,6.874,0,0,1-1.806.227,6.089,6.089,0,0,1-1.3-.118,6.952,6.952,0,0,0,6.435,4.8A13.837,13.837,0,0,1,1.648,72.3,12.9,12.9,0,0,1,0,72.2a19.388,19.388,0,0,0,10.565,3.09c12.672,0,19.6-10.5,19.6-19.6,0-.3-.01-.6-.025-.89A13.738,13.738,0,0,0,33.592,51.231Z" transform="translate(0 -48)" fill="#fff"/>
  </g>
</svg>
