<svg xmlns="http://www.w3.org/2000/svg" width="323.241" height="55.638" viewBox="0 0 323.241 55.638">
  <g id="Group_28" data-name="Group 28" transform="translate(-93.538 -271)">
    <g id="Group_27" data-name="Group 27" transform="translate(93.538 271)">
      <g id="Group_26" data-name="Group 26" transform="translate(0)">
        <rect id="Rectangle_11" data-name="Rectangle 11" width="39.342" height="39.342" rx="8" transform="translate(27.819 0) rotate(45)" fill="#fff"/>
        <path id="Path_24" data-name="Path 24" d="M-15.786-16.86V-42.712h7.139q13.665,0,13.665,12.6a12.7,12.7,0,0,1-3.795,9.618Q-2.572-16.86-8.936-16.86Zm3.029-23.112V-19.6H-8.9q5.084,0,7.914-2.722t2.83-7.716q0-9.933-10.564-9.933Z" transform="translate(34.353 58.297)" fill="#ff7575"/>
      </g>
      <path id="Path_25" data-name="Path 25" d="M-101.88-38.285a1.75,1.75,0,0,1-1.263-.505,1.706,1.706,0,0,1-.522-1.28,1.733,1.733,0,0,1,.522-1.289,1.735,1.735,0,0,1,1.263-.514,1.784,1.784,0,0,1,1.289.514,1.719,1.719,0,0,1,.531,1.289,1.707,1.707,0,0,1-.531,1.263A1.769,1.769,0,0,1-101.88-38.285Zm1.348,21.63H-103.3v-17.25h2.763Zm20.873,0h-2.763v-2.7h-.067a5.784,5.784,0,0,1-5.306,3.1,5.671,5.671,0,0,1-4.035-1.365,4.727,4.727,0,0,1-1.457-3.622q0-4.835,5.694-5.626l5.172-.724q0-4.4-3.554-4.4A8.492,8.492,0,0,0-91.6-29.862v-2.83a10.69,10.69,0,0,1,5.862-1.617q6.081,0,6.081,6.435Zm-2.763-8.726-4.161.573a6.756,6.756,0,0,0-2.9.952,2.745,2.745,0,0,0-.977,2.417,2.633,2.633,0,0,0,.9,2.064,3.483,3.483,0,0,0,2.4.8,4.434,4.434,0,0,0,3.394-1.44,5.146,5.146,0,0,0,1.339-3.647Zm35.394,8.726h-2.763v-9.905a7.473,7.473,0,0,0-.884-4.144,3.354,3.354,0,0,0-2.973-1.28,3.682,3.682,0,0,0-3.007,1.617,6.187,6.187,0,0,0-1.238,3.875v9.838h-2.763V-26.9q0-5.087-3.925-5.087a3.636,3.636,0,0,0-3,1.525,6.3,6.3,0,0,0-1.179,3.967v9.838h-2.763v-17.25h2.763v2.729h.067a5.861,5.861,0,0,1,5.357-3.133,5,5,0,0,1,3.083.985,4.957,4.957,0,0,1,1.8,2.586,6.156,6.156,0,0,1,5.728-3.571q5.694,0,5.694,7.025Zm15.365.4a8,8,0,0,1-6.107-2.417,8.954,8.954,0,0,1-2.283-6.41,9.328,9.328,0,0,1,2.375-6.789,8.539,8.539,0,0,1,6.418-2.443,7.737,7.737,0,0,1,6.022,2.375,9.418,9.418,0,0,1,2.165,6.587,9.267,9.267,0,0,1-2.333,6.612A8.175,8.175,0,0,1-31.663-16.251Zm.2-15.734a5.255,5.255,0,0,0-4.211,1.811,7.437,7.437,0,0,0-1.55,4.995,7.034,7.034,0,0,0,1.567,4.835,5.324,5.324,0,0,0,4.195,1.769,5.051,5.051,0,0,0,4.119-1.735,7.53,7.53,0,0,0,1.44-4.936,7.659,7.659,0,0,0-1.44-4.986A5.028,5.028,0,0,0-31.461-31.985Zm30.054,15.33H-4.17v-9.838q0-5.492-4.009-5.492a4.349,4.349,0,0,0-3.428,1.558,5.776,5.776,0,0,0-1.356,3.933v9.838h-2.763v-17.25h2.763v2.864h.067a6.226,6.226,0,0,1,5.66-3.268,5.277,5.277,0,0,1,4.329,1.828,8.142,8.142,0,0,1,1.5,5.281Zm22.861,0H18.691v-2.931h-.067a6.378,6.378,0,0,1-5.93,3.335,6.443,6.443,0,0,1-5.2-2.316,9.5,9.5,0,0,1-1.946-6.309,10.338,10.338,0,0,1,2.156-6.856,7.112,7.112,0,0,1,5.744-2.577,5.53,5.53,0,0,1,5.172,2.8h.067v-10.68h2.763Zm-2.763-7.8V-27a4.935,4.935,0,0,0-1.381-3.538,4.633,4.633,0,0,0-3.5-1.449A4.77,4.77,0,0,0,9.83-30.132a8.12,8.12,0,0,0-1.449,5.121A7.3,7.3,0,0,0,9.771-20.3,4.542,4.542,0,0,0,13.5-18.576a4.718,4.718,0,0,0,3.748-1.668A6.213,6.213,0,0,0,18.691-24.455Z" transform="translate(159.227 56.72)" fill="#fff"/>
    </g>
    <path id="Path_26" data-name="Path 26" d="M-50.946-21.283h-9.3v8.234h8.6v2.507h-8.6V0h-2.789V-23.807h12.086ZM-31.737,0h-2.723V-2.656h-.066A5.7,5.7,0,0,1-39.755.4,5.589,5.589,0,0,1-43.731-.946a4.659,4.659,0,0,1-1.436-3.569q0-4.765,5.611-5.545l5.1-.714q0-4.333-3.5-4.333a8.369,8.369,0,0,0-5.545,2.092V-15.8A10.535,10.535,0,0,1-37.73-17.4q5.993,0,5.993,6.342Zm-2.723-8.6-4.1.564a6.658,6.658,0,0,0-2.855.938,2.705,2.705,0,0,0-.963,2.382,2.6,2.6,0,0,0,.888,2.034,3.432,3.432,0,0,0,2.366.789,4.37,4.37,0,0,0,3.345-1.419,5.071,5.071,0,0,0,1.32-3.594Zm9.713,7.985V-3.536a8.057,8.057,0,0,0,4.9,1.644q3.586,0,3.586-2.391a2.074,2.074,0,0,0-.307-1.154,3.061,3.061,0,0,0-.83-.838,6.389,6.389,0,0,0-1.229-.656q-.706-.291-1.519-.606a19.564,19.564,0,0,1-1.984-.9,5.993,5.993,0,0,1-1.428-1.029,3.83,3.83,0,0,1-.863-1.3,4.611,4.611,0,0,1-.291-1.71,4.062,4.062,0,0,1,.548-2.117A4.858,4.858,0,0,1-22.7-16.145a6.813,6.813,0,0,1,2.083-.938A9.242,9.242,0,0,1-18.2-17.4a9.753,9.753,0,0,1,3.951.764v2.756a7.7,7.7,0,0,0-4.316-1.229,5.045,5.045,0,0,0-1.378.174,3.373,3.373,0,0,0-1.054.49,2.263,2.263,0,0,0-.681.755,1.99,1.99,0,0,0-.241.971,2.329,2.329,0,0,0,.241,1.112,2.449,2.449,0,0,0,.706.8,5.393,5.393,0,0,0,1.129.631q.664.282,1.511.614a21.026,21.026,0,0,1,2.025.888,6.947,6.947,0,0,1,1.527,1.029,4.022,4.022,0,0,1,.971,1.32,4.257,4.257,0,0,1,.34,1.776,4.188,4.188,0,0,1-.556,2.191A4.766,4.766,0,0,1-15.515-.813,6.805,6.805,0,0,1-17.657.1,10.574,10.574,0,0,1-20.2.4,9.645,9.645,0,0,1-24.746-.614ZM7.711,0H4.989V-9.795q0-5.313-3.951-5.312a4.308,4.308,0,0,0-3.354,1.536A5.723,5.723,0,0,0-3.677-9.629V0H-6.4V-25.168h2.723v10.99h.066A6.183,6.183,0,0,1,1.967-17.4q5.744,0,5.744,6.923Zm9.414-21.316a1.725,1.725,0,0,1-1.245-.5,1.681,1.681,0,0,1-.515-1.262,1.708,1.708,0,0,1,.515-1.27,1.71,1.71,0,0,1,1.245-.506,1.758,1.758,0,0,1,1.27.506,1.694,1.694,0,0,1,.523,1.27,1.683,1.683,0,0,1-.523,1.245A1.743,1.743,0,0,1,17.126-21.316ZM18.454,0H15.731V-17h2.723ZM33.961.4a7.885,7.885,0,0,1-6.018-2.382A8.824,8.824,0,0,1,25.694-8.3a9.193,9.193,0,0,1,2.341-6.69A8.415,8.415,0,0,1,34.36-17.4a7.625,7.625,0,0,1,5.935,2.341,9.281,9.281,0,0,1,2.133,6.491,9.133,9.133,0,0,1-2.3,6.516A8.057,8.057,0,0,1,33.961.4Zm.2-15.506a5.179,5.179,0,0,0-4.15,1.785A7.33,7.33,0,0,0,28.483-8.4a6.932,6.932,0,0,0,1.544,4.765A5.247,5.247,0,0,0,34.16-1.893,4.977,4.977,0,0,0,38.219-3.6a7.42,7.42,0,0,0,1.419-4.864,7.548,7.548,0,0,0-1.419-4.914A4.955,4.955,0,0,0,34.16-15.107ZM63.779,0H61.056V-9.7q0-5.412-3.951-5.412a4.286,4.286,0,0,0-3.378,1.536A5.692,5.692,0,0,0,52.39-9.7V0H49.668V-17H52.39v2.822h.066A6.136,6.136,0,0,1,58.035-17.4,5.2,5.2,0,0,1,62.3-15.6a8.024,8.024,0,0,1,1.478,5.2Z" transform="translate(353 311)" fill="#fff"/>
  </g>
</svg>
