<svg xmlns="http://www.w3.org/2000/svg" width="298.516" height="91.924" viewBox="0 0 298.516 91.924">
  <g id="Group_27" data-name="Group 27" transform="translate(-62.538 -260)">
    <g id="Group_26" data-name="Group 26" transform="translate(-225 0.462)">
      <rect id="Rectangle_11" data-name="Rectangle 11" width="65" height="65" rx="8" transform="translate(333.5 259.538) rotate(45)" fill="#fff"/>
      <path id="Path_24" data-name="Path 24" d="M-15.786,0V-42.712H-3.991q22.577,0,22.577,20.82Q18.586-12,12.316-6T-4.468,0Zm5-38.185V-4.527h6.374q8.4,0,13.076-4.5t4.676-12.748q0-16.412-17.454-16.412Z" transform="translate(334 328)" fill="#ff7575"/>
    </g>
    <path id="Path_25" data-name="Path 25" d="M-100.716-35.736a2.892,2.892,0,0,1-2.087-.835,2.818,2.818,0,0,1-.863-2.115,2.864,2.864,0,0,1,.863-2.129,2.867,2.867,0,0,1,2.087-.849,2.948,2.948,0,0,1,2.129.849,2.84,2.84,0,0,1,.877,2.129,2.821,2.821,0,0,1-.877,2.087A2.923,2.923,0,0,1-100.716-35.736ZM-98.489,0h-4.564V-28.5h4.564ZM-64,0h-4.564V-4.453h-.111A9.556,9.556,0,0,1-77.446.668a9.369,9.369,0,0,1-6.666-2.254A7.811,7.811,0,0,1-86.519-7.57q0-7.988,9.407-9.3l8.544-1.2q0-7.264-5.873-7.264a14.03,14.03,0,0,0-9.3,3.507V-26.5a17.662,17.662,0,0,1,9.686-2.672Q-64-29.168-64-18.536Zm-4.564-14.417-6.875.946A11.161,11.161,0,0,0-80.229-11.9q-1.614,1.127-1.614,3.994a4.35,4.35,0,0,0,1.489,3.409,5.754,5.754,0,0,0,3.966,1.322,7.326,7.326,0,0,0,5.608-2.38,8.5,8.5,0,0,0,2.213-6.026ZM-10.09,0h-4.564V-16.365q0-4.731-1.461-6.847t-4.912-2.115A6.083,6.083,0,0,0-26-22.655a10.221,10.221,0,0,0-2.046,6.4V0h-4.564V-16.922q0-8.405-6.485-8.405a6.007,6.007,0,0,0-4.954,2.519,10.412,10.412,0,0,0-1.948,6.554V0h-4.564V-28.5h4.564v4.509h.111a9.683,9.683,0,0,1,8.851-5.177,8.252,8.252,0,0,1,5.093,1.628,8.19,8.19,0,0,1,2.978,4.272q3.173-5.9,9.463-5.9,9.407,0,9.407,11.606ZM15.295.668A13.22,13.22,0,0,1,5.206-3.326Q1.434-7.32,1.434-13.916q0-7.181,3.924-11.216t10.6-4.036q6.374,0,9.95,3.924t3.576,10.882q0,6.819-3.855,10.924A13.507,13.507,0,0,1,15.295.668Zm.334-26a8.682,8.682,0,0,0-6.958,2.992Q6.11-19.343,6.11-14.083,6.11-9.018,8.7-6.1a8.8,8.8,0,0,0,6.93,2.922,8.344,8.344,0,0,0,6.8-2.867q2.38-2.867,2.38-8.155,0-5.344-2.38-8.238A8.308,8.308,0,0,0,15.629-25.327ZM65.283,0H60.719V-16.254q0-9.073-6.624-9.073a7.185,7.185,0,0,0-5.664,2.574,9.542,9.542,0,0,0-2.24,6.5V0H41.626V-28.5h4.564v4.731H46.3a10.286,10.286,0,0,1,9.352-5.4,8.719,8.719,0,0,1,7.153,3.02q2.477,3.02,2.477,8.725Zm37.77,0H98.489V-4.843h-.111a10.537,10.537,0,0,1-9.8,5.511,10.645,10.645,0,0,1-8.586-3.827Q76.78-6.986,76.78-13.582q0-7.069,3.563-11.328a11.75,11.75,0,0,1,9.491-4.258q5.873,0,8.544,4.62h.111V-42.193h4.564ZM98.489-12.886v-4.2a8.153,8.153,0,0,0-2.282-5.845,7.655,7.655,0,0,0-5.789-2.394,7.882,7.882,0,0,0-6.568,3.062Q81.456-19.2,81.456-13.8a12.066,12.066,0,0,0,2.3,7.779,7.5,7.5,0,0,0,6.165,2.853A7.8,7.8,0,0,0,96.11-5.928,10.265,10.265,0,0,0,98.489-12.886Z" transform="translate(258 326.193)" fill="#fff"/>
  </g>
</svg>
